<mxfile host="app.diagrams.net" modified="2023-08-05T17:39:19.841Z" agent="Mozilla/5.0 (Windows NT 10.0; Win64; x64) AppleWebKit/537.36 (KHTML, like Gecko) Chrome/115.0.0.0 Safari/537.36 Edg/115.0.1901.188" etag="T6IGiM0aKNczSacMSJYt" version="21.6.6" type="device">
  <diagram name="Page-1" id="J4Z-16qutgygthBrPV4m">
    <mxGraphModel dx="2287" dy="788" grid="1" gridSize="10" guides="1" tooltips="1" connect="1" arrows="1" fold="1" page="1" pageScale="1" pageWidth="827" pageHeight="1169" math="0" shadow="0">
      <root>
        <mxCell id="0" />
        <mxCell id="1" parent="0" />
        <mxCell id="fQGy5CcIHsEItyhEDUwm-4" style="edgeStyle=orthogonalEdgeStyle;rounded=0;orthogonalLoop=1;jettySize=auto;html=1;exitX=0.5;exitY=1;exitDx=0;exitDy=0;entryX=0.5;entryY=0;entryDx=0;entryDy=0;" parent="1" source="fQGy5CcIHsEItyhEDUwm-1" target="fQGy5CcIHsEItyhEDUwm-2" edge="1">
          <mxGeometry relative="1" as="geometry" />
        </mxCell>
        <mxCell id="1MCK6EU2w2IZv8DpO-kB-34" style="edgeStyle=orthogonalEdgeStyle;rounded=0;orthogonalLoop=1;jettySize=auto;html=1;exitX=0;exitY=0.5;exitDx=0;exitDy=0;entryX=1;entryY=0.5;entryDx=0;entryDy=0;" edge="1" parent="1" source="fQGy5CcIHsEItyhEDUwm-1" target="1MCK6EU2w2IZv8DpO-kB-30">
          <mxGeometry relative="1" as="geometry" />
        </mxCell>
        <mxCell id="fQGy5CcIHsEItyhEDUwm-1" value="&lt;b&gt;&lt;font style=&quot;font-size: 14px;&quot;&gt;Experiment&lt;/font&gt;&lt;/b&gt;" style="rounded=0;whiteSpace=wrap;html=1;" parent="1" vertex="1">
          <mxGeometry x="340" y="40" width="120" height="60" as="geometry" />
        </mxCell>
        <mxCell id="fQGy5CcIHsEItyhEDUwm-8" style="edgeStyle=orthogonalEdgeStyle;rounded=0;orthogonalLoop=1;jettySize=auto;html=1;exitX=0.5;exitY=1;exitDx=0;exitDy=0;entryX=0.5;entryY=0;entryDx=0;entryDy=0;" parent="1" source="fQGy5CcIHsEItyhEDUwm-2" target="fQGy5CcIHsEItyhEDUwm-7" edge="1">
          <mxGeometry relative="1" as="geometry">
            <Array as="points">
              <mxPoint x="400" y="210" />
              <mxPoint x="280" y="210" />
            </Array>
          </mxGeometry>
        </mxCell>
        <mxCell id="fQGy5CcIHsEItyhEDUwm-9" style="edgeStyle=orthogonalEdgeStyle;rounded=0;orthogonalLoop=1;jettySize=auto;html=1;exitX=0.5;exitY=1;exitDx=0;exitDy=0;entryX=0.5;entryY=0;entryDx=0;entryDy=0;" parent="1" source="fQGy5CcIHsEItyhEDUwm-2" target="fQGy5CcIHsEItyhEDUwm-6" edge="1">
          <mxGeometry relative="1" as="geometry">
            <Array as="points">
              <mxPoint x="400" y="210" />
              <mxPoint x="510" y="210" />
            </Array>
          </mxGeometry>
        </mxCell>
        <mxCell id="fQGy5CcIHsEItyhEDUwm-2" value="&lt;b&gt;&lt;font style=&quot;font-size: 13px;&quot;&gt;Sample&lt;/font&gt;&lt;/b&gt;" style="rounded=0;whiteSpace=wrap;html=1;" parent="1" vertex="1">
          <mxGeometry x="340" y="140" width="120" height="50" as="geometry" />
        </mxCell>
        <mxCell id="fQGy5CcIHsEItyhEDUwm-5" value="has" style="text;html=1;align=center;verticalAlign=middle;resizable=0;points=[];autosize=1;strokeColor=none;fillColor=none;fontStyle=1" parent="1" vertex="1">
          <mxGeometry x="400" y="100" width="40" height="30" as="geometry" />
        </mxCell>
        <mxCell id="fQGy5CcIHsEItyhEDUwm-15" style="edgeStyle=orthogonalEdgeStyle;rounded=0;orthogonalLoop=1;jettySize=auto;html=1;exitX=0.5;exitY=1;exitDx=0;exitDy=0;entryX=0.925;entryY=-0.023;entryDx=0;entryDy=0;entryPerimeter=0;" parent="1" source="fQGy5CcIHsEItyhEDUwm-6" target="fQGy5CcIHsEItyhEDUwm-11" edge="1">
          <mxGeometry relative="1" as="geometry" />
        </mxCell>
        <mxCell id="1MCK6EU2w2IZv8DpO-kB-16" style="edgeStyle=orthogonalEdgeStyle;rounded=0;orthogonalLoop=1;jettySize=auto;html=1;exitX=1;exitY=0.5;exitDx=0;exitDy=0;entryX=0;entryY=0.5;entryDx=0;entryDy=0;" edge="1" parent="1" source="fQGy5CcIHsEItyhEDUwm-6" target="1MCK6EU2w2IZv8DpO-kB-5">
          <mxGeometry relative="1" as="geometry">
            <Array as="points">
              <mxPoint x="650" y="250" />
              <mxPoint x="650" y="165" />
            </Array>
          </mxGeometry>
        </mxCell>
        <mxCell id="1MCK6EU2w2IZv8DpO-kB-19" style="edgeStyle=orthogonalEdgeStyle;rounded=0;orthogonalLoop=1;jettySize=auto;html=1;exitX=0.75;exitY=1;exitDx=0;exitDy=0;entryX=0.75;entryY=0;entryDx=0;entryDy=0;" edge="1" parent="1" source="fQGy5CcIHsEItyhEDUwm-6" target="fQGy5CcIHsEItyhEDUwm-17">
          <mxGeometry relative="1" as="geometry">
            <Array as="points">
              <mxPoint x="550" y="280" />
            </Array>
          </mxGeometry>
        </mxCell>
        <mxCell id="fQGy5CcIHsEItyhEDUwm-6" value="Specimen" style="rounded=0;whiteSpace=wrap;html=1;fontStyle=1;fontSize=13;fillColor=#ffe6cc;strokeColor=#d79b00;" parent="1" vertex="1">
          <mxGeometry x="450" y="220" width="120" height="60" as="geometry" />
        </mxCell>
        <mxCell id="fQGy5CcIHsEItyhEDUwm-12" style="edgeStyle=orthogonalEdgeStyle;rounded=0;orthogonalLoop=1;jettySize=auto;html=1;exitX=0.5;exitY=1;exitDx=0;exitDy=0;entryX=0.074;entryY=-0.037;entryDx=0;entryDy=0;entryPerimeter=0;" parent="1" source="fQGy5CcIHsEItyhEDUwm-7" target="fQGy5CcIHsEItyhEDUwm-11" edge="1">
          <mxGeometry relative="1" as="geometry" />
        </mxCell>
        <mxCell id="fQGy5CcIHsEItyhEDUwm-47" value="" style="edgeStyle=orthogonalEdgeStyle;rounded=0;orthogonalLoop=1;jettySize=auto;html=1;" parent="1" source="fQGy5CcIHsEItyhEDUwm-7" target="fQGy5CcIHsEItyhEDUwm-46" edge="1">
          <mxGeometry relative="1" as="geometry" />
        </mxCell>
        <mxCell id="fQGy5CcIHsEItyhEDUwm-78" style="edgeStyle=orthogonalEdgeStyle;rounded=0;orthogonalLoop=1;jettySize=auto;html=1;exitX=0.5;exitY=1;exitDx=0;exitDy=0;entryX=0.5;entryY=0;entryDx=0;entryDy=0;" parent="1" source="fQGy5CcIHsEItyhEDUwm-7" target="fQGy5CcIHsEItyhEDUwm-32" edge="1">
          <mxGeometry relative="1" as="geometry">
            <Array as="points">
              <mxPoint x="240" y="280" />
              <mxPoint x="240" y="375" />
              <mxPoint x="174" y="375" />
            </Array>
          </mxGeometry>
        </mxCell>
        <mxCell id="fQGy5CcIHsEItyhEDUwm-91" style="edgeStyle=orthogonalEdgeStyle;rounded=0;orthogonalLoop=1;jettySize=auto;html=1;exitX=0;exitY=1;exitDx=0;exitDy=0;entryX=1;entryY=0.5;entryDx=0;entryDy=0;" parent="1" source="fQGy5CcIHsEItyhEDUwm-7" target="fQGy5CcIHsEItyhEDUwm-26" edge="1">
          <mxGeometry relative="1" as="geometry" />
        </mxCell>
        <mxCell id="fQGy5CcIHsEItyhEDUwm-7" value="&lt;font style=&quot;font-size: 13px;&quot;&gt;Test&lt;/font&gt;" style="rounded=0;whiteSpace=wrap;html=1;fontStyle=1;fillColor=#fff2cc;strokeColor=#d6b656;" parent="1" vertex="1">
          <mxGeometry x="220" y="220" width="120" height="60" as="geometry" />
        </mxCell>
        <mxCell id="fQGy5CcIHsEItyhEDUwm-33" style="edgeStyle=orthogonalEdgeStyle;rounded=0;orthogonalLoop=1;jettySize=auto;html=1;exitX=0;exitY=1;exitDx=0;exitDy=0;entryX=0.5;entryY=0;entryDx=0;entryDy=0;" parent="1" source="fQGy5CcIHsEItyhEDUwm-11" target="fQGy5CcIHsEItyhEDUwm-32" edge="1">
          <mxGeometry relative="1" as="geometry">
            <Array as="points">
              <mxPoint x="264" y="390" />
              <mxPoint x="264" y="430" />
              <mxPoint x="174" y="430" />
            </Array>
          </mxGeometry>
        </mxCell>
        <mxCell id="fQGy5CcIHsEItyhEDUwm-35" style="edgeStyle=orthogonalEdgeStyle;rounded=0;orthogonalLoop=1;jettySize=auto;html=1;exitX=0;exitY=1;exitDx=0;exitDy=0;entryX=0.5;entryY=0;entryDx=0;entryDy=0;" parent="1" source="fQGy5CcIHsEItyhEDUwm-11" target="fQGy5CcIHsEItyhEDUwm-30" edge="1">
          <mxGeometry relative="1" as="geometry">
            <Array as="points">
              <mxPoint x="264" y="390" />
              <mxPoint x="264" y="430" />
              <mxPoint x="314" y="430" />
            </Array>
          </mxGeometry>
        </mxCell>
        <mxCell id="fQGy5CcIHsEItyhEDUwm-36" style="edgeStyle=orthogonalEdgeStyle;rounded=0;orthogonalLoop=1;jettySize=auto;html=1;exitX=0;exitY=1;exitDx=0;exitDy=0;entryX=0.5;entryY=0;entryDx=0;entryDy=0;" parent="1" source="fQGy5CcIHsEItyhEDUwm-11" target="fQGy5CcIHsEItyhEDUwm-34" edge="1">
          <mxGeometry relative="1" as="geometry">
            <Array as="points">
              <mxPoint x="264" y="390" />
              <mxPoint x="264" y="430" />
              <mxPoint x="34" y="430" />
            </Array>
          </mxGeometry>
        </mxCell>
        <mxCell id="fQGy5CcIHsEItyhEDUwm-90" style="edgeStyle=orthogonalEdgeStyle;rounded=0;orthogonalLoop=1;jettySize=auto;html=1;exitX=0;exitY=0.5;exitDx=0;exitDy=0;entryX=1;entryY=0.5;entryDx=0;entryDy=0;" parent="1" source="fQGy5CcIHsEItyhEDUwm-11" target="fQGy5CcIHsEItyhEDUwm-50" edge="1">
          <mxGeometry relative="1" as="geometry">
            <Array as="points">
              <mxPoint x="110" y="360" />
              <mxPoint x="110" y="360" />
            </Array>
          </mxGeometry>
        </mxCell>
        <mxCell id="1MCK6EU2w2IZv8DpO-kB-25" style="edgeStyle=orthogonalEdgeStyle;rounded=0;orthogonalLoop=1;jettySize=auto;html=1;exitX=0.75;exitY=1;exitDx=0;exitDy=0;entryX=0.5;entryY=0;entryDx=0;entryDy=0;" edge="1" parent="1" source="fQGy5CcIHsEItyhEDUwm-11" target="fQGy5CcIHsEItyhEDUwm-17">
          <mxGeometry relative="1" as="geometry">
            <Array as="points">
              <mxPoint x="520" y="390" />
            </Array>
          </mxGeometry>
        </mxCell>
        <mxCell id="fQGy5CcIHsEItyhEDUwm-11" value="Test Standard" style="rounded=0;whiteSpace=wrap;html=1;fontColor=#000000;fontStyle=1;fontSize=13;" parent="1" vertex="1">
          <mxGeometry x="260" y="330" width="270" height="60" as="geometry" />
        </mxCell>
        <mxCell id="fQGy5CcIHsEItyhEDUwm-24" value="" style="edgeStyle=orthogonalEdgeStyle;rounded=0;orthogonalLoop=1;jettySize=auto;html=1;" parent="1" source="fQGy5CcIHsEItyhEDUwm-17" target="fQGy5CcIHsEItyhEDUwm-23" edge="1">
          <mxGeometry relative="1" as="geometry" />
        </mxCell>
        <mxCell id="fQGy5CcIHsEItyhEDUwm-17" value="Specimen Geometry" style="rounded=0;whiteSpace=wrap;html=1;fontStyle=1;fontSize=13;fillColor=#ffe6cc;strokeColor=#d79b00;" parent="1" vertex="1">
          <mxGeometry x="460" y="470" width="120" height="60" as="geometry" />
        </mxCell>
        <mxCell id="1MCK6EU2w2IZv8DpO-kB-22" style="edgeStyle=orthogonalEdgeStyle;rounded=0;orthogonalLoop=1;jettySize=auto;html=1;exitX=1;exitY=0.5;exitDx=0;exitDy=0;entryX=1;entryY=0.5;entryDx=0;entryDy=0;" edge="1" parent="1" source="fQGy5CcIHsEItyhEDUwm-21" target="fQGy5CcIHsEItyhEDUwm-11">
          <mxGeometry relative="1" as="geometry" />
        </mxCell>
        <mxCell id="fQGy5CcIHsEItyhEDUwm-21" value="Manufacturing Equipment" style="whiteSpace=wrap;html=1;fontSize=13;rounded=0;fontStyle=1;fillColor=#ffe6cc;strokeColor=#d79b00;" parent="1" vertex="1">
          <mxGeometry x="670" y="220" width="120" height="60" as="geometry" />
        </mxCell>
        <mxCell id="fQGy5CcIHsEItyhEDUwm-23" value="Geometry Equipment" style="whiteSpace=wrap;html=1;fontSize=13;rounded=0;fontStyle=1;fillColor=#ffe6cc;strokeColor=#d79b00;" parent="1" vertex="1">
          <mxGeometry x="620" y="480" width="120" height="60" as="geometry" />
        </mxCell>
        <mxCell id="fQGy5CcIHsEItyhEDUwm-26" value="Test Environment" style="rounded=0;whiteSpace=wrap;html=1;fontStyle=1;fontSize=13;fillColor=#fff2cc;strokeColor=#d6b656;" parent="1" vertex="1">
          <mxGeometry y="290" width="130" height="60" as="geometry" />
        </mxCell>
        <mxCell id="fQGy5CcIHsEItyhEDUwm-30" value="Test Equipment" style="rounded=0;whiteSpace=wrap;html=1;fontStyle=1;fontSize=13;fillColor=#fff2cc;strokeColor=#d6b656;" parent="1" vertex="1">
          <mxGeometry x="254" y="470" width="120" height="60" as="geometry" />
        </mxCell>
        <mxCell id="fQGy5CcIHsEItyhEDUwm-32" value="Test Methodology" style="rounded=0;whiteSpace=wrap;html=1;fontStyle=1;fontSize=13;fillColor=#fff2cc;strokeColor=#d6b656;" parent="1" vertex="1">
          <mxGeometry x="114" y="470" width="120" height="60" as="geometry" />
        </mxCell>
        <mxCell id="fQGy5CcIHsEItyhEDUwm-34" value="Test Parameter" style="rounded=0;whiteSpace=wrap;html=1;fontStyle=1;fontSize=13;fillColor=#fff2cc;strokeColor=#d6b656;" parent="1" vertex="1">
          <mxGeometry x="-26" y="470" width="120" height="60" as="geometry" />
        </mxCell>
        <mxCell id="1MCK6EU2w2IZv8DpO-kB-40" value="" style="edgeStyle=orthogonalEdgeStyle;rounded=0;orthogonalLoop=1;jettySize=auto;html=1;" edge="1" parent="1" source="fQGy5CcIHsEItyhEDUwm-38" target="1MCK6EU2w2IZv8DpO-kB-39">
          <mxGeometry relative="1" as="geometry" />
        </mxCell>
        <mxCell id="fQGy5CcIHsEItyhEDUwm-38" value="Personnel" style="whiteSpace=wrap;html=1;rounded=0;fontStyle=1;fontSize=13;fillColor=#d5e8d4;strokeColor=#82b366;" parent="1" vertex="1">
          <mxGeometry x="-450" y="40" width="120" height="60" as="geometry" />
        </mxCell>
        <mxCell id="1MCK6EU2w2IZv8DpO-kB-36" style="edgeStyle=orthogonalEdgeStyle;rounded=0;orthogonalLoop=1;jettySize=auto;html=1;exitX=0;exitY=0.5;exitDx=0;exitDy=0;entryX=1;entryY=0.5;entryDx=0;entryDy=0;" edge="1" parent="1" source="fQGy5CcIHsEItyhEDUwm-40" target="fQGy5CcIHsEItyhEDUwm-38">
          <mxGeometry relative="1" as="geometry" />
        </mxCell>
        <mxCell id="1MCK6EU2w2IZv8DpO-kB-38" value="" style="edgeStyle=orthogonalEdgeStyle;rounded=0;orthogonalLoop=1;jettySize=auto;html=1;" edge="1" parent="1" source="fQGy5CcIHsEItyhEDUwm-40" target="1MCK6EU2w2IZv8DpO-kB-37">
          <mxGeometry relative="1" as="geometry" />
        </mxCell>
        <mxCell id="fQGy5CcIHsEItyhEDUwm-40" value="Laboratory" style="whiteSpace=wrap;html=1;fontSize=13;rounded=0;fontStyle=1;fillColor=#d5e8d4;strokeColor=#82b366;" parent="1" vertex="1">
          <mxGeometry x="-250" y="40" width="120" height="60" as="geometry" />
        </mxCell>
        <mxCell id="fQGy5CcIHsEItyhEDUwm-49" value="" style="edgeStyle=orthogonalEdgeStyle;rounded=0;orthogonalLoop=1;jettySize=auto;html=1;" parent="1" source="fQGy5CcIHsEItyhEDUwm-46" target="fQGy5CcIHsEItyhEDUwm-48" edge="1">
          <mxGeometry relative="1" as="geometry" />
        </mxCell>
        <mxCell id="fQGy5CcIHsEItyhEDUwm-46" value="Data" style="whiteSpace=wrap;html=1;rounded=0;fontStyle=1;labelBackgroundColor=none;fillColor=#dae8fc;strokeColor=#6c8ebf;" parent="1" vertex="1">
          <mxGeometry x="20" y="220" width="120" height="60" as="geometry" />
        </mxCell>
        <mxCell id="fQGy5CcIHsEItyhEDUwm-61" style="edgeStyle=orthogonalEdgeStyle;rounded=0;orthogonalLoop=1;jettySize=auto;html=1;exitX=0.5;exitY=1;exitDx=0;exitDy=0;entryX=0.5;entryY=0;entryDx=0;entryDy=0;" parent="1" source="fQGy5CcIHsEItyhEDUwm-48" target="fQGy5CcIHsEItyhEDUwm-50" edge="1">
          <mxGeometry relative="1" as="geometry" />
        </mxCell>
        <mxCell id="fQGy5CcIHsEItyhEDUwm-89" value="" style="edgeStyle=orthogonalEdgeStyle;rounded=0;orthogonalLoop=1;jettySize=auto;html=1;" parent="1" source="fQGy5CcIHsEItyhEDUwm-48" target="fQGy5CcIHsEItyhEDUwm-88" edge="1">
          <mxGeometry relative="1" as="geometry" />
        </mxCell>
        <mxCell id="fQGy5CcIHsEItyhEDUwm-48" value="Data Storage" style="whiteSpace=wrap;html=1;rounded=0;fontStyle=1;labelBorderColor=none;fillColor=#dae8fc;strokeColor=#6c8ebf;" parent="1" vertex="1">
          <mxGeometry x="-180" y="220" width="120" height="60" as="geometry" />
        </mxCell>
        <mxCell id="fQGy5CcIHsEItyhEDUwm-65" style="edgeStyle=orthogonalEdgeStyle;rounded=0;orthogonalLoop=1;jettySize=auto;html=1;exitX=0.5;exitY=1;exitDx=0;exitDy=0;entryX=0.5;entryY=0;entryDx=0;entryDy=0;" parent="1" source="fQGy5CcIHsEItyhEDUwm-50" target="fQGy5CcIHsEItyhEDUwm-52" edge="1">
          <mxGeometry relative="1" as="geometry" />
        </mxCell>
        <mxCell id="fQGy5CcIHsEItyhEDUwm-66" style="edgeStyle=orthogonalEdgeStyle;rounded=0;orthogonalLoop=1;jettySize=auto;html=1;exitX=0.5;exitY=1;exitDx=0;exitDy=0;entryX=0.5;entryY=0;entryDx=0;entryDy=0;" parent="1" source="fQGy5CcIHsEItyhEDUwm-50" target="fQGy5CcIHsEItyhEDUwm-54" edge="1">
          <mxGeometry relative="1" as="geometry">
            <Array as="points">
              <mxPoint x="-120" y="400" />
              <mxPoint x="-266" y="400" />
            </Array>
          </mxGeometry>
        </mxCell>
        <mxCell id="fQGy5CcIHsEItyhEDUwm-67" style="edgeStyle=orthogonalEdgeStyle;rounded=0;orthogonalLoop=1;jettySize=auto;html=1;exitX=0.5;exitY=1;exitDx=0;exitDy=0;entryX=0.5;entryY=0;entryDx=0;entryDy=0;" parent="1" source="fQGy5CcIHsEItyhEDUwm-50" target="fQGy5CcIHsEItyhEDUwm-57" edge="1">
          <mxGeometry relative="1" as="geometry">
            <Array as="points">
              <mxPoint x="-120" y="400" />
              <mxPoint x="-400" y="400" />
            </Array>
          </mxGeometry>
        </mxCell>
        <mxCell id="fQGy5CcIHsEItyhEDUwm-87" value="" style="edgeStyle=orthogonalEdgeStyle;rounded=0;orthogonalLoop=1;jettySize=auto;html=1;" parent="1" source="fQGy5CcIHsEItyhEDUwm-50" target="fQGy5CcIHsEItyhEDUwm-86" edge="1">
          <mxGeometry relative="1" as="geometry" />
        </mxCell>
        <mxCell id="fQGy5CcIHsEItyhEDUwm-50" value="Data Analysis" style="whiteSpace=wrap;html=1;rounded=0;fontStyle=1;fillColor=#dae8fc;strokeColor=#6c8ebf;" parent="1" vertex="1">
          <mxGeometry x="-180" y="330" width="120" height="60" as="geometry" />
        </mxCell>
        <mxCell id="fQGy5CcIHsEItyhEDUwm-52" value="Data Visualization" style="whiteSpace=wrap;html=1;rounded=0;fontStyle=1;fillColor=#dae8fc;strokeColor=#6c8ebf;" parent="1" vertex="1">
          <mxGeometry x="-180" y="420" width="120" height="60" as="geometry" />
        </mxCell>
        <mxCell id="fQGy5CcIHsEItyhEDUwm-54" value="Calculation" style="whiteSpace=wrap;html=1;rounded=0;fontStyle=1;fillColor=#dae8fc;strokeColor=#6c8ebf;" parent="1" vertex="1">
          <mxGeometry x="-326" y="420" width="120" height="60" as="geometry" />
        </mxCell>
        <mxCell id="fQGy5CcIHsEItyhEDUwm-57" value="Failure Mode" style="whiteSpace=wrap;html=1;rounded=0;fontStyle=1;fillColor=#dae8fc;strokeColor=#6c8ebf;" parent="1" vertex="1">
          <mxGeometry x="-460" y="420" width="120" height="60" as="geometry" />
        </mxCell>
        <mxCell id="fQGy5CcIHsEItyhEDUwm-74" value="hasPart" style="text;html=1;align=center;verticalAlign=middle;resizable=0;points=[];autosize=1;strokeColor=none;fillColor=none;fontStyle=1" parent="1" vertex="1">
          <mxGeometry x="190" y="390" width="70" height="30" as="geometry" />
        </mxCell>
        <mxCell id="fQGy5CcIHsEItyhEDUwm-77" value="hasPart" style="text;html=1;align=center;verticalAlign=middle;resizable=0;points=[];autosize=1;strokeColor=none;fillColor=none;fontStyle=1" parent="1" vertex="1">
          <mxGeometry x="540" y="400" width="70" height="30" as="geometry" />
        </mxCell>
        <mxCell id="fQGy5CcIHsEItyhEDUwm-84" value="follows" style="text;html=1;align=center;verticalAlign=middle;resizable=0;points=[];autosize=1;strokeColor=none;fillColor=none;fontStyle=1" parent="1" vertex="1">
          <mxGeometry x="284" y="290" width="60" height="30" as="geometry" />
        </mxCell>
        <mxCell id="fQGy5CcIHsEItyhEDUwm-85" value="follows" style="text;html=1;align=center;verticalAlign=middle;resizable=0;points=[];autosize=1;strokeColor=none;fillColor=none;fontStyle=1" parent="1" vertex="1">
          <mxGeometry x="450" y="290" width="60" height="30" as="geometry" />
        </mxCell>
        <mxCell id="fQGy5CcIHsEItyhEDUwm-86" value="Data Analysis Tool" style="whiteSpace=wrap;html=1;rounded=0;fontStyle=1;fillColor=#dae8fc;strokeColor=#6c8ebf;" parent="1" vertex="1">
          <mxGeometry x="-380" y="330" width="120" height="60" as="geometry" />
        </mxCell>
        <mxCell id="fQGy5CcIHsEItyhEDUwm-88" value="Data Storage Tool" style="whiteSpace=wrap;html=1;rounded=0;fontStyle=1;fillColor=#dae8fc;strokeColor=#6c8ebf;" parent="1" vertex="1">
          <mxGeometry x="-380" y="220" width="120" height="60" as="geometry" />
        </mxCell>
        <mxCell id="fQGy5CcIHsEItyhEDUwm-92" value="hasPart" style="text;html=1;align=center;verticalAlign=middle;resizable=0;points=[];autosize=1;strokeColor=none;fillColor=none;fontStyle=1" parent="1" vertex="1">
          <mxGeometry x="45" y="360" width="70" height="30" as="geometry" />
        </mxCell>
        <mxCell id="1MCK6EU2w2IZv8DpO-kB-14" style="edgeStyle=orthogonalEdgeStyle;rounded=0;orthogonalLoop=1;jettySize=auto;html=1;exitX=0.5;exitY=1;exitDx=0;exitDy=0;entryX=0.5;entryY=0;entryDx=0;entryDy=0;" edge="1" parent="1" source="1MCK6EU2w2IZv8DpO-kB-5" target="fQGy5CcIHsEItyhEDUwm-21">
          <mxGeometry relative="1" as="geometry" />
        </mxCell>
        <mxCell id="1MCK6EU2w2IZv8DpO-kB-20" style="edgeStyle=orthogonalEdgeStyle;rounded=0;orthogonalLoop=1;jettySize=auto;html=1;exitX=1;exitY=0.5;exitDx=0;exitDy=0;entryX=1;entryY=0.5;entryDx=0;entryDy=0;" edge="1" parent="1" source="1MCK6EU2w2IZv8DpO-kB-5" target="fQGy5CcIHsEItyhEDUwm-11">
          <mxGeometry relative="1" as="geometry" />
        </mxCell>
        <mxCell id="1MCK6EU2w2IZv8DpO-kB-5" value="Material Manufacturing" style="rounded=0;whiteSpace=wrap;html=1;fontStyle=1;fontSize=13;fillColor=#ffe6cc;strokeColor=#d79b00;" vertex="1" parent="1">
          <mxGeometry x="670" y="135" width="120" height="60" as="geometry" />
        </mxCell>
        <mxCell id="1MCK6EU2w2IZv8DpO-kB-9" style="edgeStyle=orthogonalEdgeStyle;rounded=0;orthogonalLoop=1;jettySize=auto;html=1;exitX=0.5;exitY=1;exitDx=0;exitDy=0;entryX=0.5;entryY=0;entryDx=0;entryDy=0;" edge="1" parent="1" source="1MCK6EU2w2IZv8DpO-kB-6" target="1MCK6EU2w2IZv8DpO-kB-7">
          <mxGeometry relative="1" as="geometry" />
        </mxCell>
        <mxCell id="1MCK6EU2w2IZv8DpO-kB-10" style="edgeStyle=orthogonalEdgeStyle;rounded=0;orthogonalLoop=1;jettySize=auto;html=1;exitX=0.5;exitY=1;exitDx=0;exitDy=0;entryX=0.5;entryY=0;entryDx=0;entryDy=0;" edge="1" parent="1" source="1MCK6EU2w2IZv8DpO-kB-6" target="1MCK6EU2w2IZv8DpO-kB-5">
          <mxGeometry relative="1" as="geometry">
            <Array as="points">
              <mxPoint x="640" y="120" />
              <mxPoint x="730" y="120" />
            </Array>
          </mxGeometry>
        </mxCell>
        <mxCell id="1MCK6EU2w2IZv8DpO-kB-6" value="Material" style="rounded=0;whiteSpace=wrap;html=1;fontStyle=1" vertex="1" parent="1">
          <mxGeometry x="580" y="40" width="120" height="60" as="geometry" />
        </mxCell>
        <mxCell id="1MCK6EU2w2IZv8DpO-kB-11" style="edgeStyle=orthogonalEdgeStyle;rounded=0;orthogonalLoop=1;jettySize=auto;html=1;exitX=0;exitY=0.5;exitDx=0;exitDy=0;entryX=1;entryY=0.5;entryDx=0;entryDy=0;" edge="1" parent="1" source="1MCK6EU2w2IZv8DpO-kB-7" target="fQGy5CcIHsEItyhEDUwm-2">
          <mxGeometry relative="1" as="geometry" />
        </mxCell>
        <mxCell id="1MCK6EU2w2IZv8DpO-kB-7" value="Composite Material" style="rounded=0;whiteSpace=wrap;html=1;fontStyle=1" vertex="1" parent="1">
          <mxGeometry x="510" y="135" width="120" height="60" as="geometry" />
        </mxCell>
        <mxCell id="1MCK6EU2w2IZv8DpO-kB-21" value="follows" style="text;html=1;align=center;verticalAlign=middle;resizable=0;points=[];autosize=1;strokeColor=none;fillColor=none;fontStyle=1" vertex="1" parent="1">
          <mxGeometry x="650" y="330" width="60" height="30" as="geometry" />
        </mxCell>
        <mxCell id="1MCK6EU2w2IZv8DpO-kB-23" value="has" style="text;html=1;align=center;verticalAlign=middle;resizable=0;points=[];autosize=1;strokeColor=none;fillColor=none;fontStyle=1" vertex="1" parent="1">
          <mxGeometry x="600" y="220" width="40" height="30" as="geometry" />
        </mxCell>
        <mxCell id="1MCK6EU2w2IZv8DpO-kB-24" value="has" style="text;html=1;align=center;verticalAlign=middle;resizable=0;points=[];autosize=1;strokeColor=none;fillColor=none;fontStyle=1" vertex="1" parent="1">
          <mxGeometry x="730" y="190" width="40" height="30" as="geometry" />
        </mxCell>
        <mxCell id="1MCK6EU2w2IZv8DpO-kB-26" value="" style="edgeStyle=orthogonalEdgeStyle;rounded=0;orthogonalLoop=1;jettySize=auto;html=1;" edge="1" parent="1" source="1MCK6EU2w2IZv8DpO-kB-30" target="1MCK6EU2w2IZv8DpO-kB-31">
          <mxGeometry relative="1" as="geometry" />
        </mxCell>
        <mxCell id="1MCK6EU2w2IZv8DpO-kB-27" value="" style="edgeStyle=orthogonalEdgeStyle;rounded=0;orthogonalLoop=1;jettySize=auto;html=1;" edge="1" parent="1" source="1MCK6EU2w2IZv8DpO-kB-30" target="1MCK6EU2w2IZv8DpO-kB-31">
          <mxGeometry relative="1" as="geometry" />
        </mxCell>
        <mxCell id="1MCK6EU2w2IZv8DpO-kB-28" style="edgeStyle=orthogonalEdgeStyle;rounded=0;orthogonalLoop=1;jettySize=auto;html=1;exitX=0.5;exitY=1;exitDx=0;exitDy=0;entryX=0.5;entryY=0;entryDx=0;entryDy=0;" edge="1" parent="1" source="1MCK6EU2w2IZv8DpO-kB-30" target="1MCK6EU2w2IZv8DpO-kB-32">
          <mxGeometry relative="1" as="geometry" />
        </mxCell>
        <mxCell id="1MCK6EU2w2IZv8DpO-kB-29" style="edgeStyle=orthogonalEdgeStyle;rounded=0;orthogonalLoop=1;jettySize=auto;html=1;exitX=0.5;exitY=1;exitDx=0;exitDy=0;entryX=0.5;entryY=0;entryDx=0;entryDy=0;" edge="1" parent="1" source="1MCK6EU2w2IZv8DpO-kB-30" target="1MCK6EU2w2IZv8DpO-kB-33">
          <mxGeometry relative="1" as="geometry">
            <Array as="points">
              <mxPoint x="190" y="120" />
              <mxPoint x="-40" y="120" />
            </Array>
          </mxGeometry>
        </mxCell>
        <mxCell id="1MCK6EU2w2IZv8DpO-kB-35" style="edgeStyle=orthogonalEdgeStyle;rounded=0;orthogonalLoop=1;jettySize=auto;html=1;exitX=0;exitY=0.5;exitDx=0;exitDy=0;entryX=1;entryY=0.5;entryDx=0;entryDy=0;" edge="1" parent="1" source="1MCK6EU2w2IZv8DpO-kB-30" target="fQGy5CcIHsEItyhEDUwm-40">
          <mxGeometry relative="1" as="geometry" />
        </mxCell>
        <mxCell id="1MCK6EU2w2IZv8DpO-kB-30" value="Institution" style="whiteSpace=wrap;html=1;fontSize=13;rounded=0;fontStyle=1;fillColor=#d5e8d4;strokeColor=#82b366;" vertex="1" parent="1">
          <mxGeometry x="130" y="40" width="120" height="60" as="geometry" />
        </mxCell>
        <mxCell id="1MCK6EU2w2IZv8DpO-kB-31" value="Institution Name" style="whiteSpace=wrap;html=1;fontSize=13;fillColor=#d5e8d4;strokeColor=#82b366;rounded=0;fontStyle=1;" vertex="1" parent="1">
          <mxGeometry x="50" y="135" width="120" height="60" as="geometry" />
        </mxCell>
        <mxCell id="1MCK6EU2w2IZv8DpO-kB-32" value="Institution Location" style="whiteSpace=wrap;html=1;fontSize=13;fillColor=#d5e8d4;strokeColor=#82b366;rounded=0;fontStyle=1;" vertex="1" parent="1">
          <mxGeometry x="190" y="135" width="120" height="60" as="geometry" />
        </mxCell>
        <mxCell id="1MCK6EU2w2IZv8DpO-kB-33" value="Institution Type" style="whiteSpace=wrap;html=1;fontSize=13;rounded=0;fontStyle=1;fillColor=#d5e8d4;strokeColor=#82b366;" vertex="1" parent="1">
          <mxGeometry x="-100" y="135" width="120" height="60" as="geometry" />
        </mxCell>
        <mxCell id="1MCK6EU2w2IZv8DpO-kB-37" value="Laboratory Name" style="whiteSpace=wrap;html=1;fontSize=13;rounded=0;fontStyle=1;fillColor=#d5e8d4;strokeColor=#82b366;" vertex="1" parent="1">
          <mxGeometry x="-250" y="135" width="120" height="60" as="geometry" />
        </mxCell>
        <mxCell id="1MCK6EU2w2IZv8DpO-kB-39" value="Personnel Name" style="whiteSpace=wrap;html=1;rounded=0;fontStyle=1;fontSize=13;fillColor=#d5e8d4;strokeColor=#82b366;" vertex="1" parent="1">
          <mxGeometry x="-450" y="135" width="120" height="60" as="geometry" />
        </mxCell>
      </root>
    </mxGraphModel>
  </diagram>
</mxfile>
